<?xml version="1.0" encoding="UTF-8"?>
<svg id="Layer_1" data-name="Layer 1" xmlns="http://www.w3.org/2000/svg" viewBox="0 0 397.21 399.53">
  <defs>
    <style>
      .cls-1 {
        fill: #308dc5;
      }

      .cls-2 {
        fill: #6db55a;
      }
    </style>
  </defs>
  <path class="cls-1" d="M173.42,399.06c-6.49-1.73-11.39-5.86-14.56-12.35-3.89-7.98-4.23-12.68-4.66-62.22-1.68-205.16-2.93-284.44-4.61-296.21-.67-4.8-1.73-6.92-3.46-7.11-3.46-.43-4.13,5.53-6.53,58.28-1.68,36.13-4.28,100.27-6.05,149.19-2.11,58.09-2.26,60.83-4.42,68.23-1.63,5.67-4.76,10.57-9.66,15.09-4.23,3.89-7.5,5.09-13.79,5.09-7.5,0-13.45-2.5-18.64-7.78-5-5.19-7.69-11.44-9.03-21.33-.62-4.42-1.2-37.81-1.35-78.03-.14-36.52-.86-72.65-1.49-75.67-1.15-5.67-5.04-7.35-7.21-3.12-.53,1.06-1.3,3.46-1.73,5.38-.72,3.46-3.75,26.71-6.2,47.71-2.98,25.32-4.61,32.48-8.94,39.16-5.53,8.55-12.11,12.49-21,12.49-12.2,0-22.2-7.21-26.57-19.27C1.41,210.73.11,203.71.01,197.42c-.05-5.04.05-5.72,1.11-7.54,1.73-2.98,4.42-4.61,8.07-4.85,2.59-.19,3.32-.05,5.14,1.06,3.6,2.11,4.52,4.32,5.81,13.93,1.15,8.79,3.12,13.21,6.58,14.99,2.98,1.54,6.53-.19,8.6-4.23,2.07-3.99,3.03-10.28,7.4-48.19,2.16-18.88,3.41-27.15,4.8-32.67,2.83-11.24,7.93-17.54,16.43-20.23,3.41-1.06,4.56-1.2,8.89-1.06,4.52.14,5.24.29,8.22,1.78,6.29,3.17,11.29,10.19,13.02,18.31,1.54,7.26,1.73,13.21,2.21,65.34.72,85.86.82,89.61,1.68,93.69,1.25,5.77,3.8,9.13,6.92,9.13,1.2,0,3.7-2.11,4.66-3.94,1.83-3.56,2.11-7.3,3.8-50.83,5.91-153.99,8.02-201.36,9.42-212.8,1.49-12.4,3.89-18.59,9.18-23.64,8.07-7.74,20.66-7.54,28.68.48,5.09,5.09,8.07,13.55,9.13,26.23,1.11,12.35,2.5,111.37,3.94,272.19.24,32.38.67,61.4.86,64.48.48,6.29,1.44,9.18,3.27,9.42,1.54.24,2.79-2.07,3.46-6.29,1.15-7.64,5.09-75.19,10.38-177.39,3.32-64.72,3.41-65.68,7.06-73.27,4.37-9.03,12.73-14.03,22.49-13.31,10.71.77,18.55,8.22,21.81,20.76.38,1.59,1.59,7.74,2.64,13.69,2.16,12.2,3.22,15.95,5.86,21.24,4.08,8.12,10.52,13.65,21.04,17.92l2.59,1.11,3.7-3.8c3.03-3.12,4.37-4.13,7.74-5.67,4.76-2.21,7.88-2.93,12.59-2.93,7.35,0,13.55,2.64,19.07,8.17,4.18,4.13,6.34,7.88,7.69,13.26,3.27,12.68-1.73,25.56-12.78,32.86-5.09,3.36-8.98,4.52-14.27,4.13-8.22-.58-13.79-2.83-19.03-7.78-1.97-1.83-3.7-3.08-4.32-3.08-1.63,0-10.38,4.47-12.35,6.29-.53.48-1.2.91-1.49.91s-1.97,1.54-3.75,3.46c-6.63,7.16-9.85,14.99-11.48,27.77-.96,7.69-2.02,9.99-5.62,12.3-4.13,2.59-10.52.48-13.02-4.28-1.39-2.64-1.35-7.4.1-15.95,2.55-15.13,8.31-26.52,18.11-35.84,3.41-3.27,10.52-8.55,11.53-8.6.19-.05,1.87-.86,3.7-1.92l3.32-1.83-4.52-2.26c-14.22-7.11-22.87-16.14-28.54-29.79-2.16-5.19-3.36-10.09-5.33-21.81-.91-5.43-2.02-11.15-2.45-12.64-.86-3.17-2.45-5.19-4.13-5.19-1.83,0-3.99,2.74-4.61,5.77-.58,2.98-2.07,27.43-4.85,80.72-4.56,87.16-7.98,144.77-9.18,155.67-1.15,10.81-3.99,18.11-8.79,22.82-5.24,5.09-6.34,5.67-11.72,5.81-2.79.1-5.62-.1-7.06-.43h0Z"/>
  <g>
    <path class="cls-2" d="M291.95,312.91c-9.9-2.64-17.92-10.91-20.52-21.09-.91-3.65-.91-10.76,0-14.41,1.35-5.38,3.89-9.75,7.93-13.74,4.85-4.8,9.03-6.97,15.13-7.69,8.41-1.06,13.93.1,19.6,3.94l2.93,2.02,1.49-.91c.82-.48,4.18-2.5,7.5-4.47,3.27-1.97,7.98-4.9,10.47-6.49l4.47-2.88-.34-3.89c-.91-11.24,4.08-21.72,13.21-27.58,4.32-2.79,8.02-3.94,13.93-4.23,8.41-.43,14.46,1.83,20.32,7.5,3.8,3.65,6.1,7.3,7.88,12.49,1.11,3.12,1.25,4.47,1.25,8.94-.05,8.84-2.83,15.57-9.18,22.01-3.7,3.75-5.81,5.09-10.19,6.58-2.74.91-3.84,1.01-8.65.82-6.34-.24-10.23-1.3-14.61-3.94-1.54-.91-3.08-1.68-3.41-1.68-.29,0-2.45,1.2-4.8,2.64-2.31,1.44-4.37,2.64-4.56,2.64s-.62.34-.96.72-.96.72-1.44.72c-.43,0-2.31,1.11-4.13,2.45-1.83,1.35-3.75,2.64-4.28,2.88s-1.35.62-1.83.91c-.43.24-1.2.67-1.68.91-.67.34-.77.82-.58,2.74.96,9.61-1.68,17.78-8.12,24.79-3.6,3.84-5.96,5.48-10.52,7.06-3.41,1.25-12.25,1.35-16.34.24h.03Z"/>
    <path class="cls-2" d="M363.68,183.96c-13.98-2.98-24.07-16-23.16-29.93.24-3.46.14-3.8-.77-4.37-7.93-4.85-20.76-11.82-21.72-11.82-.72,0-2.26.72-3.51,1.54-4.95,3.41-8.98,4.71-14.56,4.71-11.1-.05-20.9-5.86-25.8-15.23-2.45-4.76-3.46-8.74-3.46-14.08,0-7.5,2.74-14.56,7.74-19.94,5.48-5.81,10.91-8.31,19.22-8.74,6.01-.34,8.74.19,13.89,2.64,5.14,2.4,9.75,7.11,12.4,12.59,2.45,5.19,3.12,8.22,3.12,13.93l-.05,4.66,11.53,6.58,11.48,6.53,3.03-2.16c4.56-3.22,8.7-4.66,14.46-4.95,8.89-.43,14.8,1.83,20.9,7.98,5.96,5.96,8.74,12.59,8.79,21,0,8.46-2.79,15.33-8.89,21.67-2.93,3.03-4.66,4.37-7.5,5.81-3.6,1.78-3.8,1.83-9.47,1.92-3.17.05-6.63-.1-7.69-.34h.02Z"/>
  </g>
</svg>